<svg xmlns="http://www.w3.org/2000/svg" viewBox="0 0 512 512"><path d="M332.1,440.5a62.3,62.3,0,0,1-13-1.3c-26-5.2-44.4-27.3-62.3-48.5l-2.8-3.5c-9.8-11.6-32.5-38.7-52.7-38.7-5.6,0-10.8,2-15.7,6.2a58,58,0,0,1-6.1,47.6c-9.9,16.3-27.2,28.3-44.2,30.5a63.3,63.3,0,0,1-8.9.6c-14.8,0-29.6-4.6-43.9-9s-27.2-8.5-40.2-8.5-23.2,3.9-33.1,12.4l-1.3,1-2.3.3a5.5,5.5,0,0,1-4.8-2.9,6.2,6.2,0,0,1,1-7.4c12.5-14.8,28.2-22.1,47.5-22.1,9.2,0,19.3,1.6,31.7,5l9.4,2.8c11.7,3.5,23.9,7.1,35.7,7.1a44.9,44.9,0,0,0,6.4-.4c12.2-1.4,25.2-10.4,31.6-21.9,4-7,7.4-18.5,1-32.7a12.6,12.6,0,0,1,1.9-12.8c10.7-12.7,22.5-19.2,34.8-19.2,25.2,0,47.9,25.9,69.9,50.9,12.8,14.5,24.8,28.2,35.9,35a47.1,47.1,0,0,0,25.4,7.3c21.4,0,43.3-13.1,64.4-25.6,6.9-4.1,13.6-8.1,20.1-11.5,21-11.1,38.3-16.3,54.3-16.3a71,71,0,0,1,35.4,9.6h0c4,2.3,5.7,6.7,4.4,11.5s-5.2,9.3-10.5,9.3a8.2,8.2,0,0,1-4.3-1.2,54.6,54.6,0,0,0-27.3-7.5c-21.7,0-43,12.7-65.4,26S357.3,440.5,332.1,440.5Zm-9.4-165.2a41.1,41.1,0,0,0,9.5,7.8,39.7,39.7,0,0,0,18.9,4.9,40.5,40.5,0,0,0,6-.5c13-1.5,25.7-7.4,37.9-13.1l6.6-2.9c12.2-5.6,28.4-12,44.9-12,14.8,0,27.6,5.1,39.1,15.4a12,12,0,0,1,2.7,13.3c-1.6,4.3-5.2,7.1-8.9,7.1a8.4,8.4,0,0,1-5.8-2.4c-8.7-8.1-18.2-12.1-29-12.1-14.3,0-29.2,6.6-45,13.6s-33.1,14.7-50,14.7a55,55,0,0,1-10.1-.9c-17.5-3.4-38.4-18.3-43.3-43.1a44.6,44.6,0,0,1,1.8-23.8,79.7,79.7,0,0,0-19.6-2.4c-26.6,0-53.4,12.5-79.4,24.6-12.4,5.7-25.2,11.7-37.8,16.2a145.5,145.5,0,0,1-72.1,6.8l-3.7-.5c-12.2-1.9-23.8-3.7-35.2-3.7-13.1,0-24.2,2.3-34.8,7.4l-.9.4H13a5.5,5.5,0,0,1-5.2-4,6.5,6.5,0,0,1,2.2-7.3c12.7-9.6,27.3-14.2,45.9-14.2a221.7,221.7,0,0,1,27.2,2.2,148,148,0,0,0,22.9,1.7,156.4,156.4,0,0,0,58.1-11.3c9.5-3.8,19.3-8.3,28.7-12.7,28.2-13.1,57.3-26.5,87.2-26.5a91.6,91.6,0,0,1,40.2,9c4.4,2.2,16.6,11.2,13.5,18.1-2,4.7-7.7,6.7-14,3.4S305,255.4,322.7,275.3Zm56.2-98.1c-9.8,0-19.3-3.3-28.1-9.7-11-8-18.7-20-26.2-31.6s-15.2-23.3-25.6-30.4C283.6,95.1,265.9,92.6,248.6,92a72.6,72.6,0,0,1-3.8,45.6c-8.2,19.1-24.8,29.6-46.8,29.6h-3.4c-19.8-1-39.9-7.7-59.3-14.2-21.1-7.1-41-13.7-60.6-13.7s-37.3,7.3-52.9,23.2l-1.3,1.3-2.6.3a5.7,5.7,0,0,1-5.3-3.6,5.7,5.7,0,0,1,1.2-6.4c18.2-18.7,40.3-27.7,67.6-27.7,13,0,27.6,2.1,44.4,6.5,6.2,1.6,12.5,3.4,18.8,5.3,17,5.1,34.5,10.4,51.5,10.4l5.4-.2c8-.6,22.3-4.2,28.5-21.7,4-11.3,4.2-28.5-3.2-38.1a10.3,10.3,0,0,1-1.1-11.1c1.7-3.5,4.9-5.9,8.3-5.9h3.5c35.6,0,72.2,5.3,97.9,43.7l2,3c13.4,20,25,37.3,43.3,37.3a35.5,35.5,0,0,0,9.9-1.5c20.8-5.9,38.3-28.1,53.6-47.7l3.2-4.1a8.3,8.3,0,0,1,6.6-3.8h.1a8.4,8.4,0,0,1,7.1,3.6,11.4,11.4,0,0,1-.5,14.4C444,137.5,412.7,177.2,378.9,177.2Z" fill="#69e4fa"/></svg>