<svg xmlns="http://www.w3.org/2000/svg" viewBox="0 0 512 512"><g fill="#69e4fa"><path opacity="0.1" d="M280,314.3a28.5,28.5,0,0,1-4.1-.4c-8.2-1.7-14-8.7-19.6-15.4l-.9-1.1c-3.1-3.6-10.3-12.2-16.7-12.2a6.9,6.9,0,0,0-4.9,2,18.1,18.1,0,0,1-2,15c-3.1,5.1-8.6,8.9-13.9,9.6a13.2,13.2,0,0,1-2.8.2c-4.7,0-9.4-1.4-13.9-2.8s-8.6-2.7-12.7-2.7a15,15,0,0,0-10.4,3.9l-.4.3h-.8a1.6,1.6,0,0,1-1.5-.9,2,2,0,0,1,.3-2.3,18.7,18.7,0,0,1,15-7,36.7,36.7,0,0,1,10,1.6l3,.8c3.7,1.1,7.6,2.3,11.3,2.3h2a14.6,14.6,0,0,0,10-6.9,11.4,11.4,0,0,0,.3-10.4,3.8,3.8,0,0,1,.6-4c3.4-4,7.1-6.1,11-6.1,7.9,0,15.1,8.2,22.1,16.1,4,4.6,7.8,8.9,11.3,11.1a15.1,15.1,0,0,0,8,2.2c6.8,0,13.7-4.1,20.4-8,2.1-1.3,4.2-2.6,6.3-3.7,6.6-3.5,12.1-5.1,17.1-5.1a22.1,22.1,0,0,1,11.2,3h0a3.1,3.1,0,0,1,1.4,3.7,3.7,3.7,0,0,1-3.3,2.9,2.5,2.5,0,0,1-1.4-.4,17,17,0,0,0-8.6-2.4c-6.8,0-13.6,4-20.6,8.3S288,314.3,280,314.3Zm-2.9-52.2a14.2,14.2,0,0,0,3,2.5,12.3,12.3,0,0,0,5.9,1.5h1.9c4.1-.5,8.1-2.4,12-4.2l2.1-.9c3.8-1.8,8.9-3.8,14.1-3.8a17.7,17.7,0,0,1,12.4,4.9,3.8,3.8,0,0,1,.9,4.2,2.9,2.9,0,0,1-4.7,1.5,12.7,12.7,0,0,0-9.1-3.9c-4.6,0-9.3,2.1-14.3,4.3s-10.4,4.7-15.7,4.7a16.6,16.6,0,0,1-3.2-.3c-5.5-1.1-12.2-5.8-13.7-13.6a13.6,13.6,0,0,1,.6-7.5,25.7,25.7,0,0,0-6.2-.8c-8.4,0-16.9,4-25.1,7.8-3.9,1.8-8,3.7-12,5.1a45.6,45.6,0,0,1-15.5,2.7,43.7,43.7,0,0,1-7.2-.6h-1.2a72.3,72.3,0,0,0-11.1-1.2,24.9,24.9,0,0,0-11,2.3l-.3.2h-.4a1.8,1.8,0,0,1-1.7-1.2,2.1,2.1,0,0,1,.7-2.4c4-3,8.6-4.4,14.5-4.4a81,81,0,0,1,8.6.6,43.7,43.7,0,0,0,7.2.6,49,49,0,0,0,18.4-3.6c3-1.2,6.1-2.6,9-4,8.9-4.1,18.1-8.4,27.6-8.4a29.5,29.5,0,0,1,12.7,2.9c1.4.7,5.2,3.5,4.2,5.7s-2.4,2.1-4.4,1.1S271.5,255.8,277.1,262.1Zm17.7-31a14.6,14.6,0,0,1-8.9-3.1c-3.4-2.5-5.9-6.3-8.3-9.9s-4.7-7.4-8-9.6c-4.9-3.3-10.5-4.1-15.9-4.3a23.6,23.6,0,0,1-1.2,14.4c-2.6,6-7.9,9.4-14.8,9.4h-1.1c-6.3-.3-12.6-2.4-18.7-4.5s-13-4.3-19.2-4.3-11.7,2.3-16.7,7.3l-.4.5h-.8a1.9,1.9,0,0,1-1.7-1.2,1.8,1.8,0,0,1,.4-2,28.6,28.6,0,0,1,21.4-8.8,55.3,55.3,0,0,1,14,2.1l5.9,1.7c5.4,1.6,10.9,3.2,16.3,3.2h1.7a9.9,9.9,0,0,0,9-6.9c1.2-3.5,1.3-9-1-12a3.4,3.4,0,0,1-.4-3.5,3.5,3.5,0,0,1,2.7-1.9h1c11.3,0,22.8,1.7,31,13.8l.6,1c4.2,6.3,7.9,11.8,13.7,11.8a11.8,11.8,0,0,0,3.1-.5c6.6-1.9,12.1-8.9,16.9-15.1l1-1.3a3.5,3.5,0,0,1,2.1-1.2h.1a2.5,2.5,0,0,1,2.2,1.2,3.5,3.5,0,0,1,.7,2.3,3.1,3.1,0,0,1-.9,2.2C315.4,218.6,305.5,231.1,294.8,231.1Z"/><path d="M407,250.8h-1c-2-.4-3.4-2.2-4.8-3.8l-.3-.3c-.7-.9-2.5-3-4.1-3a1.6,1.6,0,0,0-1.2.5,4.5,4.5,0,0,1-.5,3.7,5.1,5.1,0,0,1-3.4,2.4H391a9.8,9.8,0,0,1-3.4-.7,13.2,13.2,0,0,0-3.2-.7,3.7,3.7,0,0,0-2.6,1h-.3l-.3-.2a.5.5,0,0,1,.1-.6,4.7,4.7,0,0,1,3.7-1.7,7.5,7.5,0,0,1,2.4.4l.8.2a8.7,8.7,0,0,0,2.8.5h.5a3.4,3.4,0,0,0,2.4-1.7,2.6,2.6,0,0,0,.1-2.5,1.1,1.1,0,0,1,.1-1,3.8,3.8,0,0,1,2.8-1.5c1.9,0,3.7,2,5.4,3.9a18.3,18.3,0,0,0,2.8,2.8,4.6,4.6,0,0,0,2,.5c1.7,0,3.4-1,5-2l1.6-.9a9.7,9.7,0,0,1,4.2-1.2,5.5,5.5,0,0,1,2.8.7h0a.8.8,0,0,1,.3.9.8.8,0,0,1-.8.7h-.3a5.4,5.4,0,0,0-2.1-.5c-1.7,0-3.4.9-5.2,2S409,250.8,407,250.8Zm-.7-12.9.7.6a4.2,4.2,0,0,0,1.5.4h.5a10,10,0,0,0,2.9-1l.6-.2a7.6,7.6,0,0,1,3.5-1,4.4,4.4,0,0,1,3,1.2.9.9,0,0,1,.2,1.1.8.8,0,0,1-.7.5.4.4,0,0,1-.4-.2,3.3,3.3,0,0,0-2.3-.9,8.3,8.3,0,0,0-3.5,1.1,11.5,11.5,0,0,1-3.9,1.1h-.8a4.2,4.2,0,0,1-3.4-3.3,4.1,4.1,0,0,1,.2-1.9l-1.6-.2c-2,0-4.1,1-6.2,1.9a15.1,15.1,0,0,1-2.9,1.3,10.6,10.6,0,0,1-3.8.7l-1.8-.2h-.3l-2.8-.3a6,6,0,0,0-2.7.6h-.2c-.2,0-.3-.1-.4-.3s0-.4.2-.5a5.4,5.4,0,0,1,3.6-1.2l2.1.2h1.8a11.6,11.6,0,0,0,4.5-.8l2.3-1c2.2-1,4.4-2.1,6.8-2.1a6.7,6.7,0,0,1,3.1.7c.3.2,1.3.9,1.1,1.4s-.6.5-1.1.3S404.9,236.3,406.3,237.9Zm4.4-7.7a3.6,3.6,0,0,1-2.2-.7,10,10,0,0,1-2.1-2.5,7.8,7.8,0,0,0-2-2.4,6.7,6.7,0,0,0-3.9-1,5.3,5.3,0,0,1-.3,3.5,3.6,3.6,0,0,1-3.6,2.3h-.3a19.2,19.2,0,0,1-4.6-1.1,17.5,17.5,0,0,0-4.8-1.1,5.3,5.3,0,0,0-4.1,1.9h-.3c-.2,0-.3-.1-.4-.3a.4.4,0,0,1,.1-.5,6.8,6.8,0,0,1,5.3-2.2,15.5,15.5,0,0,1,3.4.5l1.5.5a14.2,14.2,0,0,0,4,.8h.4a2.7,2.7,0,0,0,2.3-1.7,3.5,3.5,0,0,0-.3-3,.9.9,0,0,1-.1-.9.8.8,0,0,1,.7-.4h.2c2.8,0,5.7.4,7.7,3.4v.2c1.1,1.6,2,2.9,3.4,2.9h.8c1.6-.5,3-2.2,4.2-3.7l.2-.3a.5.5,0,0,1,.5-.3h.1l.5.2a1,1,0,0,1,0,1.2C415.8,227.1,413.3,230.2,410.7,230.2Z"/></g><g fill="#011a3a"><path d="M43.8,222H41.6L29.9,248,18.3,222H16l12.8,28.8h2.1Z"/><path d="M69.6,222H67.5L54.2,250.8h2.3l12-26.5,12.1,26.5h2.2Z"/><path d="M99.5,222v28.8h2.1V222Z"/><path d="M133.6,222h-2.1l-13.3,28.8h2.3l12-26.5,12.1,26.5h2.2Z"/><path d="M186.9,222h-2.1v25l-19.5-25h-1.8v28.8h2.1V225.7l19.6,25.1h1.7Z"/><path d="M219,222h-2.1l-13.3,28.8h2.3l12-26.5L230,250.8h2.2Z"/><path d="M286.7,250.8h2.1V222H287l-12.9,22.2L261.3,222h-1.8v28.8h2V226.2l12.1,20.7h1l12.1-20.8Z"/><path d="M320.7,222h-2.1l-13.2,28.8h2.3l12-26.5,12,26.5H334Z"/><path d="M359.2,236.6l12.4,14.2h2.5L360.6,235l12.7-13h-2.6l-17.9,18.5V222h-2.1v28.8h2.1v-7.6Z"/><path d="M432.8,247.8c2,2.1,4.8,3.2,8.5,3.2a11.5,11.5,0,0,0,8.5-3.2q3-3.2,3-9.3V222h-2.1v16.5c0,3.5-.8,6.2-2.4,7.9s-3.9,2.6-7,2.6-5.4-.8-7-2.6-2.4-4.4-2.4-7.9V222h-2.1v16.5Q429.8,244.7,432.8,247.8Z"/><path d="M492.9,224.6c-2-1.8-4.9-2.6-8.5-2.6H474.1v1.9h10.3a11,11,0,0,1,7,2,7.3,7.3,0,0,1,2.5,5.8,7,7,0,0,1-2.5,5.7c-1.6,1.4-4,2-7,2H474.1v11.4h2.1v-9.5h8.2c3.6,0,6.5-.8,8.5-2.5a9.7,9.7,0,0,0,0-14.2Z"/></g><g fill="#1966b3"><path d="M114.4,286.5H111c0-.4.1-.6.3-.7h1.1l-.7-9.5-3.5,8.2h-.8l-3.5-7.9-.7,9.2h1.3c0,.5-.1.8-.5.8h-3.3a1,1,0,0,1,.2-.7h1.2l.8-10.6h-1.3c-.1-.5.1-.8.5-.8h2.2l3.7,8.3,3.4-8.3h2.3c.3,0,.5.3.5.8h-1.3l.8,10.6h1.2C115,286.2,114.8,286.5,114.4,286.5Z"/><path d="M129.2,285.9c0,.6-.4.9-1.1.9a1.3,1.3,0,0,1-1.4-1.2,3.6,3.6,0,0,1-2.8,1.2,2.7,2.7,0,0,1-2-.7,2.1,2.1,0,0,1-.7-1.7,2.6,2.6,0,0,1,.8-1.9,4.1,4.1,0,0,1,2.7-.8,6,6,0,0,1,2,.3v-1.5a2.5,2.5,0,0,0-.5-1.6,1.8,1.8,0,0,0-1.5-.7,1.8,1.8,0,0,0-1.5.6,2.2,2.2,0,0,0-.5,1.2.8.8,0,0,1-.7-.2.8.8,0,0,1-.3-.7,1.7,1.7,0,0,1,.8-1.3,4.6,4.6,0,0,1,2.1-.5,5,5,0,0,1,2.1.5,2.2,2.2,0,0,1,.9,1,3.1,3.1,0,0,1,.4,1.7v5.3Zm-2.5-2.8a4.1,4.1,0,0,0-1.9-.5,3.5,3.5,0,0,0-1.7.4,1.7,1.7,0,0,0-.5,1.2,1.6,1.6,0,0,0,.4,1.2,2.8,2.8,0,0,0,1.3.4,3.7,3.7,0,0,0,2.4-1Z"/><path d="M143.9,290.4h-3.4a.8.8,0,0,1,.2-.6h1.1v-3.9a4.3,4.3,0,0,1-2.8,1.1,3.4,3.4,0,0,1-2.6-1.2,5,5,0,0,1-1-3.3,5.2,5.2,0,0,1,1.1-3.6,3.9,3.9,0,0,1,3.2-1.4,5.2,5.2,0,0,1,2.1.4h1.3v12h1.3c.1.5-.1.7-.5.7Zm-2.1-11.3a4.1,4.1,0,0,0-2.4-.8,2,2,0,0,0-2,1.1,5.3,5.3,0,0,0-.7,2.6,5.4,5.4,0,0,0,.7,2.7,2.3,2.3,0,0,0,2,1,2.1,2.1,0,0,0,1.2-.3,3.7,3.7,0,0,0,1.2-.7Z"/><path d="M149.7,278.1c0-.4.1-.5.5-.5h2.1V283a3,3,0,0,0,.6,2,1.9,1.9,0,0,0,1.7.7,4.2,4.2,0,0,0,2.3-1v-6.3h-1.4c-.1-.5.1-.7.4-.7h2.2v7.9h.9c.3,0,.4.2.4.7l-2.2.2-.2-.9a3.9,3.9,0,0,1-2.8,1.2,2.9,2.9,0,0,1-2.2-.9,3.9,3.9,0,0,1-.9-2.8v-4.7h-1.4Z"/><path d="M169.3,286.5h-3.4a.8.8,0,0,1,.2-.6h1.1v-7.3h-.9c-.3-.1-.5-.3-.5-.8l2.7-.3v8.3l1.4.2C169.9,286.3,169.7,286.5,169.3,286.5Zm-1-10.9a.7.7,0,0,1-.6.3.9.9,0,0,1-.7-.3,1.1,1.1,0,0,1-.2-.6,1.4,1.4,0,0,1,.2-.7.8.8,0,0,1,.7-.2c.2,0,.5,0,.6.2a.9.9,0,0,1,.3.7A.7.7,0,0,1,168.3,275.6Z"/><path d="M179.7,286.5h-3.4a.7.7,0,0,1,.6-.7h.8V274.9h-1c-.3-.1-.4-.3-.4-.8l2.6-.4v11.9l1.3.2C180.3,286.3,180.1,286.5,179.7,286.5Z"/><path d="M190.1,286.5h-3.4a.7.7,0,0,1,.5-.7h.8V274.9h-.9c-.3-.1-.5-.3-.5-.8l2.7-.4v11.9l1.3.2C190.6,286.3,190.5,286.5,190.1,286.5Z"/><path d="M205,285.9c0,.6-.4.9-1.1.9a1.2,1.2,0,0,1-1.3-1.2,3.8,3.8,0,0,1-2.8,1.2,2.8,2.8,0,0,1-2.1-.7,2.4,2.4,0,0,1-.7-1.7,2.6,2.6,0,0,1,.8-1.9,4.3,4.3,0,0,1,2.8-.8,5.4,5.4,0,0,1,1.9.3v-1.5a2.1,2.1,0,0,0-.5-1.6,1.6,1.6,0,0,0-1.5-.7,1.8,1.8,0,0,0-1.5.6,2.1,2.1,0,0,0-.4,1.2,1.1,1.1,0,0,1-.8-.2.8.8,0,0,1-.3-.7,1.7,1.7,0,0,1,.8-1.3,4.6,4.6,0,0,1,2.1-.5,5.4,5.4,0,0,1,2.2.5,4.5,4.5,0,0,1,.9,1,4.3,4.3,0,0,1,.3,1.7v5.3Zm-2.5-2.8a3.8,3.8,0,0,0-1.9-.5,3.5,3.5,0,0,0-1.7.4,1.7,1.7,0,0,0,0,2.4,2.1,2.1,0,0,0,1.2.4,3.7,3.7,0,0,0,2.4-1Z"/><path d="M219,286.8c-.8,0-1.2-.5-1.3-1.4a4,4,0,0,1-2.9,1.4,3.4,3.4,0,0,1-2.5-1.1,5,5,0,0,1-1.1-3.4,5.2,5.2,0,0,1,1.1-3.6,4.2,4.2,0,0,1,3.3-1.4,4.1,4.1,0,0,1,2.1.5V275h-1c-.3-.1-.4-.3-.4-.8l2.6-.4v12.1h1.2c0,.6-.4.9-1.1.9Zm-1.3-7.6a3.6,3.6,0,0,0-2.4-.9,2.3,2.3,0,0,0-2.1,1.1,5.3,5.3,0,0,0-.6,2.6,5.4,5.4,0,0,0,.6,2.7,2.2,2.2,0,0,0,2,1,2.1,2.1,0,0,0,1.2-.3,4.4,4.4,0,0,0,1.3-.9Z"/><path d="M230.3,278.2a2.3,2.3,0,0,0-2,1.1,5.8,5.8,0,0,0-.6,2.8,5.4,5.4,0,0,0,.6,2.7,2.2,2.2,0,0,0,1.9,1,2.2,2.2,0,0,0,2-1,5.4,5.4,0,0,0,.6-2.7,6.1,6.1,0,0,0-.6-2.8A2.3,2.3,0,0,0,230.3,278.2Zm.1-.9a4,4,0,0,1,2.5.9,2.4,2.4,0,0,1,.9,1.4,4.8,4.8,0,0,1,.4,2.2,5.2,5.2,0,0,1-1.1,3.6,3.9,3.9,0,0,1-5.8.2,5.5,5.5,0,0,1-1-3.4,5.6,5.6,0,0,1,1.1-3.5,3.4,3.4,0,0,1,3-1.4Z"/><path d="M243.5,278.8a5.3,5.3,0,0,1,1.4-1.1,2.7,2.7,0,0,1,1.3-.4l.9.2a1.1,1.1,0,0,1,.3.8,2.1,2.1,0,0,1-.3,1.3l-.8.2c0-.9-.2-1.3-.7-1.3a3.3,3.3,0,0,0-2.1,1.2v5.9l1.6.2c0,.5-.1.7-.5.7h-3.7a.6.6,0,0,1,.3-.6h1v-7.2h-.9c-.3,0-.4-.3-.4-.7l2.4-.3.2,1.4Z"/><path d="M261.5,285.9q0,.9-1.2.9a1.2,1.2,0,0,1-1.3-1.2,3.8,3.8,0,0,1-2.8,1.2,2.6,2.6,0,0,1-2-.7,2.1,2.1,0,0,1-.8-1.7,2.3,2.3,0,0,1,.9-1.9,3.8,3.8,0,0,1,2.7-.8,6.4,6.4,0,0,1,2,.3v-1.5a2.1,2.1,0,0,0-.6-1.6,1.6,1.6,0,0,0-1.5-.7,1.7,1.7,0,0,0-1.4.6,1.7,1.7,0,0,0-.5,1.2.8.8,0,0,1-.7-.2.8.8,0,0,1-.3-.7,1.5,1.5,0,0,1,.8-1.3,4.1,4.1,0,0,1,2.1-.5,5.4,5.4,0,0,1,2.1.5,2.2,2.2,0,0,1,.9,1,4.3,4.3,0,0,1,.4,1.7v5.3Zm-2.5-2.8a4.2,4.2,0,0,0-2-.5,3.1,3.1,0,0,0-1.6.4,1.3,1.3,0,0,0-.5,1.2,1.6,1.6,0,0,0,.4,1.2,2.2,2.2,0,0,0,1.3.4,4.2,4.2,0,0,0,2.4-1Z"/><path d="M273.1,274.1H277a4.9,4.9,0,0,1,3.4,1,3,3,0,0,1,1.1,2.4,3.6,3.6,0,0,1-1.3,3.1,6.8,6.8,0,0,1-3.7.9h-1.2v4.1h1.4c.1.5-.1.8-.5.8h-3.6a1,1,0,0,1,.2-.7H274V275h-1.3c-.1-.5.1-.8.4-.8Zm3.3,6.6c2.5,0,3.7-1,3.7-2.9s-1.2-3-3.8-2.9h-1v5.6Z"/><path d="M290.5,278.8a5.3,5.3,0,0,1,1.4-1.1,2.7,2.7,0,0,1,1.3-.4l.9.2a1.1,1.1,0,0,1,.3.8,2.1,2.1,0,0,1-.3,1.3l-.8.2c0-.9-.2-1.3-.7-1.3a3.3,3.3,0,0,0-2.1,1.2v5.9l1.6.2c0,.5-.1.7-.5.7h-3.7a.6.6,0,0,1,.3-.6h1.1v-7.2h-1c-.3,0-.4-.3-.4-.7l2.4-.3.2,1.4Z"/><path d="M304.3,278.2a2,2,0,0,0-1.9,1.1,4.9,4.9,0,0,0-.7,2.8,5.4,5.4,0,0,0,.6,2.7,2.2,2.2,0,0,0,1.9,1,2.2,2.2,0,0,0,2-1,5.4,5.4,0,0,0,.6-2.7,6.1,6.1,0,0,0-.6-2.8A2.3,2.3,0,0,0,304.3,278.2Zm.1-.9a4,4,0,0,1,2.5.9,2.4,2.4,0,0,1,.9,1.4,4.8,4.8,0,0,1,.4,2.2,5.2,5.2,0,0,1-1.1,3.6,3.9,3.9,0,0,1-5.8.2,5.5,5.5,0,0,1-1-3.4,5.6,5.6,0,0,1,1.1-3.5,3.4,3.4,0,0,1,3-1.4Z"/><path d="M314.9,278.4v-.3c0-.2,0-.3.1-.3v-.2h1.1v-.7a3.7,3.7,0,0,1,.7-2.5,2.4,2.4,0,0,1,2-.9,2,2,0,0,1,1.1.2.8.8,0,0,1,.4.7,1.4,1.4,0,0,1-.2.7l-.7.2a1.2,1.2,0,0,0-.2-.7,1.1,1.1,0,0,0-.8-.3c-.7,0-1,.7-1,2.2v1.1h2.2c.1.5-.1.8-.5.8h-1.7v7.2l1.8.2v.5c-.2.2-.3.2-.4.2h-3.9c0-.3,0-.5.2-.6h1.1v-7.3Z"/><path d="M332.9,281.7h-5.7a3.5,3.5,0,0,0-.1.6,4.9,4.9,0,0,0,.7,2.5,2.3,2.3,0,0,0,2.1.9,3.9,3.9,0,0,0,2.6-1c.1.2.2.3.2.5s-.3.7-1,1a4,4,0,0,1-2.2.6,3.5,3.5,0,0,1-2.7-1.1,4.9,4.9,0,0,1-1-3.4,5.3,5.3,0,0,1,1.2-3.7,3.5,3.5,0,0,1,2.8-1.3,2.7,2.7,0,0,1,2.4,1,4.3,4.3,0,0,1,.7,2.5Zm-1.3-.8a3.9,3.9,0,0,0-.5-2,1.5,1.5,0,0,0-1.4-.7,1.8,1.8,0,0,0-1.5.7,3.1,3.1,0,0,0-.9,2Z"/><path d="M339.4,279.8a2.1,2.1,0,0,1,.9-1.8,3.5,3.5,0,0,1,2.1-.7,3.6,3.6,0,0,1,1.9.4,1.1,1.1,0,0,1,.7,1.1.7.7,0,0,1-.4.7l-.7.2a1.5,1.5,0,0,0-.4-1.1,1.9,1.9,0,0,0-1.2-.4,2,2,0,0,0-1.3.4,1.1,1.1,0,0,0-.5.9,1.1,1.1,0,0,0,.5,1l1.5.7,1.4.6.7.4a1.9,1.9,0,0,1,.8,1.7,2.5,2.5,0,0,1-1,2,3.5,3.5,0,0,1-2.5.9,4.2,4.2,0,0,1-2-.5,1.4,1.4,0,0,1-.9-1.2.9.9,0,0,1,.3-.7.8.8,0,0,1,.7-.2,1.9,1.9,0,0,0,.7,1.2,2.4,2.4,0,0,0,1.5.4,2,2,0,0,0,1.4-.4,1.1,1.1,0,0,0,.6-1.1,1,1,0,0,0-.4-1l-1.2-.6-1.1-.5-.8-.3a2.2,2.2,0,0,1-.7-.6A2,2,0,0,1,339.4,279.8Z"/><path d="M355.3,286.5h-3.4c0-.3,0-.5.2-.6h1.1v-7.3h-1c-.3-.1-.4-.3-.4-.8l2.6-.3v8.3l1.4.2C355.9,286.3,355.7,286.5,355.3,286.5Zm-1-10.9a.9.9,0,0,1-.6.3.9.9,0,0,1-.7-.3c-.2-.1-.2-.4-.2-.6a.7.7,0,0,1,.9-.9.7.7,0,0,1,.6.2.9.9,0,0,1,.3.7A.7.7,0,0,1,354.3,275.6Z"/><path d="M366.1,278.2a2.1,2.1,0,0,0-1.9,1.1,4.9,4.9,0,0,0-.7,2.8,4.5,4.5,0,0,0,.7,2.7,2,2,0,0,0,1.9,1,2.2,2.2,0,0,0,1.9-1,5.4,5.4,0,0,0,.7-2.7,6.1,6.1,0,0,0-.7-2.8A2.1,2.1,0,0,0,366.1,278.2Zm.1-.9a3.8,3.8,0,0,1,2.5.9,2.4,2.4,0,0,1,.9,1.4,4.8,4.8,0,0,1,.4,2.2,5.7,5.7,0,0,1-1,3.6,3.9,3.9,0,0,1-3,1.4,3.2,3.2,0,0,1-2.8-1.2,4.9,4.9,0,0,1-1-3.4,5,5,0,0,1,1-3.5,3.6,3.6,0,0,1,3-1.4Z"/><path d="M386.1,286.5h-3.4a.6.6,0,0,1,.3-.6h1.1v-4.8c0-1.7-.7-2.5-2-2.5a3.2,3.2,0,0,0-1.4.3l-1.4.9v6l1.3.2c.1.5-.1.7-.5.7h-3.4a.7.7,0,0,1,.6-.7h.8v-7.2h-1c-.3-.1-.4-.3-.4-.8l2.4-.3.2,1.4h0a4.6,4.6,0,0,1,3.1-1.4,3.2,3.2,0,0,1,2.1.8,3.7,3.7,0,0,1,.9,2.7v4.8l1.2.2C386.7,286.3,386.5,286.5,386.1,286.5Z"/><path d="M401.1,285.9q0,.9-1.2.9a1.2,1.2,0,0,1-1.3-1.2,3.8,3.8,0,0,1-2.8,1.2,2.7,2.7,0,0,1-2-.7,2.1,2.1,0,0,1-.7-1.7,2.2,2.2,0,0,1,.8-1.9,3.8,3.8,0,0,1,2.7-.8,6,6,0,0,1,2,.3v-1.5a2.5,2.5,0,0,0-.5-1.6,1.9,1.9,0,0,0-1.6-.7,1.7,1.7,0,0,0-1.4.6,2.2,2.2,0,0,0-.5,1.2.8.8,0,0,1-.7-.2.8.8,0,0,1-.3-.7,1.7,1.7,0,0,1,.8-1.3,4.1,4.1,0,0,1,2.1-.5,5.4,5.4,0,0,1,2.1.5,2.2,2.2,0,0,1,.9,1,3.1,3.1,0,0,1,.4,1.7v5.3Zm-2.5-2.8a4.2,4.2,0,0,0-2-.5,3.1,3.1,0,0,0-1.6.4,1.3,1.3,0,0,0-.5,1.2,1.6,1.6,0,0,0,.4,1.2,2.5,2.5,0,0,0,1.3.4,4.2,4.2,0,0,0,2.4-1Z"/><path d="M410.8,286.5h-3.4a.7.7,0,0,1,.6-.7h.8V274.9h-1c-.3-.1-.4-.3-.4-.8l2.6-.4v11.9l1.3.2C411.4,286.3,411.2,286.5,410.8,286.5Z"/></g></svg>