<svg xmlns="http://www.w3.org/2000/svg" viewBox="0 0 512 125"><g fill="#69e4fa"><path opacity="0.1" d="M281.6,124.7a22,22,0,0,1-4.4-.5c-8.7-1.8-14.9-9.2-20.9-16.3l-1-1.2c-3.3-3.9-10.9-13.1-17.7-13.1a7.9,7.9,0,0,0-5.3,2.1,19.9,19.9,0,0,1-2.1,16.1c-3.3,5.5-9.1,9.5-14.8,10.3l-3.1.2c-4.9,0-9.9-1.6-14.7-3.1s-9.2-2.8-13.6-2.8a16.3,16.3,0,0,0-11.1,4.1l-.5.4h-.7a2.1,2.1,0,0,1-1.7-1,2.1,2.1,0,0,1,.4-2.5,19.9,19.9,0,0,1,16-7.4,38.5,38.5,0,0,1,10.7,1.7l3.1.9c4,1.2,8.1,2.4,12.1,2.4h2.1a15.2,15.2,0,0,0,10.6-7.4,11.7,11.7,0,0,0,.4-11,4.5,4.5,0,0,1,.6-4.4c3.6-4.2,7.6-6.4,11.8-6.4,8.4,0,16.1,8.7,23.5,17.1,4.3,4.9,8.3,9.5,12.1,11.8a15.6,15.6,0,0,0,8.5,2.5c7.2,0,14.6-4.4,21.7-8.7,2.3-1.3,4.6-2.7,6.8-3.8,7.1-3.8,12.9-5.5,18.3-5.5a23.9,23.9,0,0,1,11.9,3.2h0a3.5,3.5,0,0,1,1.5,3.9,4.1,4.1,0,0,1-3.6,3.1,2.5,2.5,0,0,1-1.4-.4,18.2,18.2,0,0,0-9.2-2.5c-7.3,0-14.5,4.3-22,8.8S290.1,124.7,281.6,124.7ZM278.5,69a9.9,9.9,0,0,0,3.2,2.6,12.9,12.9,0,0,0,6.3,1.7l2-.2c4.4-.5,8.7-2.5,12.8-4.4l2.2-1c4.2-1.9,9.6-4,15.2-4a18.6,18.6,0,0,1,13.1,5.2,3.9,3.9,0,0,1,1,4.4,3.5,3.5,0,0,1-3.1,2.4,2.5,2.5,0,0,1-1.9-.8,13.8,13.8,0,0,0-9.8-4c-4.8,0-9.8,2.2-15.1,4.5s-11.2,5-16.9,5a19.5,19.5,0,0,1-3.4-.3c-5.9-1.2-12.9-6.2-14.5-14.5a14.4,14.4,0,0,1,.5-8,23.9,23.9,0,0,0-6.6-.8c-8.9,0-18,4.2-26.7,8.2-4.2,2-8.5,4-12.7,5.5a50,50,0,0,1-16.6,2.9,49,49,0,0,1-7.7-.6l-1.2-.2a85.7,85.7,0,0,0-11.9-1.2A26.1,26.1,0,0,0,175,73.8l-.4.2h-.4a1.9,1.9,0,0,1-1.8-1.3,2.3,2.3,0,0,1,.7-2.5c4.3-3.2,9.2-4.8,15.5-4.8a69.9,69.9,0,0,1,9.2.8,49,49,0,0,0,7.7.6,51.9,51.9,0,0,0,19.6-3.9c3.1-1.2,6.4-2.8,9.6-4.2,9.5-4.4,19.3-9,29.4-9a30,30,0,0,1,13.5,3.1c1.5.7,5.6,3.7,4.6,6.1s-2.6,2.2-4.7,1.1S272.5,62.3,278.5,69Zm18.9-33.1a16.4,16.4,0,0,1-9.5-3.2c-3.7-2.7-6.3-6.7-8.8-10.6s-5.1-7.9-8.6-10.3c-5.2-3.5-11.2-4.4-17-4.5a23.7,23.7,0,0,1-1.3,15.3c-2.7,6.4-8.3,10-15.7,10h-1.2c-6.7-.4-13.4-2.6-20-4.8s-13.8-4.7-20.4-4.7-12.5,2.5-17.8,7.9l-.4.4h-.9a1.8,1.8,0,0,1-1.8-1.2,2,2,0,0,1,.4-2.2,30.7,30.7,0,0,1,22.8-9.3A57.7,57.7,0,0,1,212.1,21l6.4,1.8c5.7,1.7,11.6,3.5,17.3,3.5h1.8a10.4,10.4,0,0,0,9.6-7.3c1.4-3.8,1.5-9.6-1.1-12.8a3.7,3.7,0,0,1-.3-3.8A3.2,3.2,0,0,1,248.6.4h1.2c12,0,24.3,1.8,32.9,14.8l.7,1c4.5,6.7,8.5,12.6,14.6,12.6a12.6,12.6,0,0,0,3.3-.5c7.1-2.1,12.9-9.5,18.1-16.1l1.1-1.4a3,3,0,0,1,2.2-1.3h0a3,3,0,0,1,2.4,1.2,4.4,4.4,0,0,1,.8,2.5,4,4,0,0,1-1,2.4C319.3,22.6,308.8,35.9,297.4,35.9Z"/><path d="M417.1,56.9H416c-2.1-.4-3.7-2.3-5.2-4l-.2-.3c-.8-1-2.7-3.2-4.4-3.2a1.7,1.7,0,0,0-1.3.5,4.9,4.9,0,0,1-.5,3.9,5.4,5.4,0,0,1-3.7,2.6H400a15.1,15.1,0,0,1-3.7-.7,9.8,9.8,0,0,0-3.3-.7,4,4,0,0,0-2.8,1h-.3l-.4-.2a.6.6,0,0,1,.1-.7,4.9,4.9,0,0,1,4-1.8,9.2,9.2,0,0,1,2.6.4l.8.3a15.9,15.9,0,0,0,3,.6h.5a3.7,3.7,0,0,0,2.6-1.8,3,3,0,0,0,.1-2.7.9.9,0,0,1,.2-1.1,3.5,3.5,0,0,1,2.9-1.6c2.1,0,3.9,2.2,5.8,4.2a12.1,12.1,0,0,0,3,3,3.7,3.7,0,0,0,2.1.6c1.8,0,3.6-1.1,5.3-2.2l1.7-.9a10.4,10.4,0,0,1,4.5-1.4,6.1,6.1,0,0,1,3,.8h0a.9.9,0,0,1,.3,1,.8.8,0,0,1-.8.7h-.4a3.9,3.9,0,0,0-2.3-.7c-1.8,0-3.5,1.1-5.4,2.2S419.2,56.9,417.1,56.9Zm-.8-13.7.8.6a2.9,2.9,0,0,0,1.6.4h.5a8.9,8.9,0,0,0,3.1-1.1l.6-.3a10,10,0,0,1,3.7-1,5.1,5.1,0,0,1,3.3,1.3.9.9,0,0,1,.2,1.1.7.7,0,0,1-.7.6c-.2,0-.4,0-.5-.2a3.3,3.3,0,0,0-2.4-1,9.8,9.8,0,0,0-3.8,1.2,10.2,10.2,0,0,1-4.1,1.2h-.9a4.7,4.7,0,0,1-3.6-3.6,3.4,3.4,0,0,1,.2-2l-1.7-.2c-2.2,0-4.4,1.1-6.6,2.1a20.5,20.5,0,0,1-3.1,1.3,11.8,11.8,0,0,1-4.1.7h-2.2c-1.1-.1-2-.3-3-.3a5.7,5.7,0,0,0-2.9.7h-.2c-.2,0-.3-.1-.4-.3a.4.4,0,0,1,.2-.6,6,6,0,0,1,3.8-1.2l2.3.2h1.9a13.6,13.6,0,0,0,4.8-.9l2.4-1.1c2.3-1.1,4.8-2.2,7.3-2.2a6.7,6.7,0,0,1,3.3.8c.4.1,1.4.9,1.1,1.5a.7.7,0,0,1-1.1.2C415.5,40.7,414.8,41.5,416.3,43.2ZM421,35a4,4,0,0,1-2.3-.8,9,9,0,0,1-2.2-2.6,9.5,9.5,0,0,0-2.2-2.6,7.4,7.4,0,0,0-4.1-1.1,6.2,6.2,0,0,1-.4,3.8,4,4,0,0,1-3.9,2.5h-.2a21.5,21.5,0,0,1-5-1.2,15.8,15.8,0,0,0-5-1.2,5.7,5.7,0,0,0-4.4,2h-.4a.5.5,0,0,1-.4-.3.4.4,0,0,1,.1-.5,7.3,7.3,0,0,1,5.6-2.3,13,13,0,0,1,3.7.5l1.6.4a13.2,13.2,0,0,0,4.3.9h.4a2.8,2.8,0,0,0,2.4-1.8,3.6,3.6,0,0,0-.3-3.2.9.9,0,0,1-.1-.9,1,1,0,0,1,.7-.5h.3c3,0,6,.4,8.2,3.6v.3c1.2,1.7,2.1,3.1,3.6,3.1h.9c1.7-.5,3.2-2.4,4.4-4l.3-.3a.7.7,0,0,1,.6-.4h0a.9.9,0,0,1,.6.3,1.3,1.3,0,0,1,.1.6.8.8,0,0,1-.2.6C426.4,31.7,423.8,35,421,35Z"/></g><g fill="var(--title, #011a3a)"><path d="M29.6,26.2H27.3L14.9,54,2.5,26.2H0L13.7,56.9h2.2Z"/><path d="M57.2,26.2H54.9L40.8,56.9h2.4L56,28.7,68.9,56.9h2.4Z"/><path d="M89.1,26.2V56.9h2.2V26.2Z"/><path d="M125.4,26.2h-2.2L109.1,56.9h2.4l12.8-28.2,12.8,28.2h2.5Z"/><path d="M182.3,26.2h-2.2V52.9L159.2,26.2h-1.9V56.9h2.3V30.2l20.9,26.7h1.8Z"/><path d="M216.5,26.2h-2.2L200.1,56.9h2.4l12.9-28.2,12.8,28.2h2.4Z"/><path d="M288.8,56.9H291V26.2h-1.8L275.3,49.9,261.6,26.2h-1.9V56.9h2.2V30.7l12.9,22.1h1.1l12.8-22.2Z"/><path d="M325.1,26.2h-2.3L308.7,56.9h2.4l12.8-28.2,12.9,28.2h2.4Z"/><path d="M366.1,41.8l13.2,15.1H382L367.6,40.2l13.5-14h-2.7L359.2,45.9V26.2H357V56.9h2.2V48.8Z"/><path d="M444.6,53.8q3.1,3.3,9,3.3c3.9,0,6.9-1.1,9.1-3.3s3.3-5.6,3.3-9.9V26.2h-2.3V43.8c0,3.8-.8,6.6-2.6,8.5s-4.2,2.8-7.4,2.8-5.8-.9-7.5-2.8-2.6-4.7-2.6-8.5V26.2h-2.3V43.9Q441.3,50.4,444.6,53.8Z"/><path d="M508.7,29c-2.2-1.9-5.2-2.8-9.1-2.8h-11v2h11c3.3,0,5.8.8,7.5,2.2a7.8,7.8,0,0,1,2.6,6.2,7.6,7.6,0,0,1-2.6,6.1q-2.6,2.1-7.5,2.1h-11V56.9h2.2v-10h8.8c3.9,0,6.9-.9,9.1-2.8a9.2,9.2,0,0,0,3.3-7.5,9.2,9.2,0,0,0-3.3-7.6Z"/></g><g fill="var(--subtitle, #1966b3)"><path d="M105,95h-3.7c0-.4.1-.6.3-.7h1.2L102,83.9l-3.6,8.7h-.9l-3.8-8.5L93,94.1h1.4c0,.6-.1.8-.6.8H90.3c0-.4.1-.6.3-.7h1.2l.9-11.3H91.3q-.1-.9.6-.9h2.3l3.9,8.8,3.6-8.8h2.5c.4,0,.6.3.5.9h-1.4l.9,11.2,1.3.2C105.6,94.8,105.4,95,105,95Z"/><path d="M120.7,94.4c0,.6-.4,1-1.2,1s-1.2-.5-1.4-1.3a4.1,4.1,0,0,1-3,1.2,2.8,2.8,0,0,1-2.1-.7,2.3,2.3,0,0,1-.8-1.8,2.9,2.9,0,0,1,.9-2.1,4.4,4.4,0,0,1,2.9-.8,6.6,6.6,0,0,1,2.1.3V88.7a2.4,2.4,0,0,0-.6-1.8,2.2,2.2,0,0,0-3.1-.1,2.1,2.1,0,0,0-.5,1.3c-.4,0-.6,0-.8-.2a.8.8,0,0,1-.3-.7,1.4,1.4,0,0,1,.8-1.4,3.8,3.8,0,0,1,2.2-.6,4.6,4.6,0,0,1,2.3.6,2.4,2.4,0,0,1,1,1,4.8,4.8,0,0,1,.4,1.8v5.7Zm-2.6-3a3.6,3.6,0,0,0-2.1-.5,3,3,0,0,0-1.8.4,1.7,1.7,0,0,0-.5,1.3,1.7,1.7,0,0,0,.5,1.2,1.9,1.9,0,0,0,1.3.5,4,4,0,0,0,2.6-1.1Z"/><path d="M136.5,99.2h-3.7q0-.6.3-.6l1.1-.2V94.1a4.4,4.4,0,0,1-3,1.2,3.4,3.4,0,0,1-2.7-1.2,5.3,5.3,0,0,1-1.2-3.5,6.1,6.1,0,0,1,1.2-3.9,4.2,4.2,0,0,1,3.4-1.5,5.9,5.9,0,0,1,2.3.5h1.4V98.3H137c.1.5-.1.8-.5.8Zm-2.3-12a3.9,3.9,0,0,0-2.6-.9,2.3,2.3,0,0,0-2.1,1.1,5.2,5.2,0,0,0-.7,2.9,5.1,5.1,0,0,0,.7,2.8,2.5,2.5,0,0,0,2.2,1,2.7,2.7,0,0,0,1.3-.2l1.2-.8Z"/><path d="M142.6,86.1c0-.4.2-.6.5-.6h2.3v5.8a3.3,3.3,0,0,0,.6,2.1,2.2,2.2,0,0,0,1.8.8,4.2,4.2,0,0,0,2.5-1.1V86.4h-1.6c0-.5.2-.8.6-.8h2.3v8.4h1c.3.1.4.3.4.9l-2.4.2-.2-1.1a4.1,4.1,0,0,1-3,1.3,3.2,3.2,0,0,1-2.3-.9,4,4,0,0,1-1-3v-5h-1.5Z"/><path d="M163.6,95h-3.7a.8.8,0,0,1,.2-.6h1.2V86.4h-1c-.3-.1-.5-.4-.5-.9l2.8-.3v8.9h1.5C164.2,94.8,164,95,163.6,95Zm-1.1-11.6a1,1,0,0,1-1.4,0,.8.8,0,0,1-.3-.7.9.9,0,0,1,.3-.7,1.3,1.3,0,0,1,1.4,0,.9.9,0,0,1,.3.7A.8.8,0,0,1,162.5,83.4Z"/><path d="M174.7,95H171c0-.4.2-.7.6-.7h.8V82.7h-1c-.3,0-.4-.3-.4-.8l2.8-.4V94.1h1.4C175.2,94.8,175.1,95,174.7,95Z"/><path d="M185.7,95H182a.6.6,0,0,1,.7-.7h.8V82.7h-1c-.3,0-.5-.3-.5-.8l2.8-.4V94.1h1.4C186.3,94.8,186.1,95,185.7,95Z"/><path d="M201.6,94.4c0,.6-.4,1-1.2,1a1.3,1.3,0,0,1-1.4-1.3,4.1,4.1,0,0,1-3,1.2,2.8,2.8,0,0,1-2.1-.7,2.1,2.1,0,0,1-.8-1.8,2.9,2.9,0,0,1,.9-2.1,4.2,4.2,0,0,1,2.9-.8,6.6,6.6,0,0,1,2.1.3V88.7a2.4,2.4,0,0,0-.6-1.8,1.9,1.9,0,0,0-1.6-.7,2.1,2.1,0,0,0-1.6.6,2.9,2.9,0,0,0-.5,1.3,1,1,0,0,1-1.1-.9,1.5,1.5,0,0,1,.9-1.4,3.8,3.8,0,0,1,2.2-.6,4.6,4.6,0,0,1,2.3.6,2.4,2.4,0,0,1,1,1,4.8,4.8,0,0,1,.3,1.8v5.7Zm-2.6-3a3.6,3.6,0,0,0-2.1-.5,3,3,0,0,0-1.8.4,1.7,1.7,0,0,0-.5,1.3,1.3,1.3,0,0,0,.5,1.2,1.7,1.7,0,0,0,1.3.5,4,4,0,0,0,2.6-1.1Z"/><path d="M216.5,95.3c-.8,0-1.3-.4-1.4-1.4a3.9,3.9,0,0,1-3,1.4,3.4,3.4,0,0,1-2.7-1.2,5.3,5.3,0,0,1-1.2-3.5,6.1,6.1,0,0,1,1.2-3.9,4.3,4.3,0,0,1,3.5-1.5,5.4,5.4,0,0,1,2.2.5v-3h-1c-.3,0-.5-.3-.5-.8l2.9-.4V94.3h1.2q0,.9-1.2.9Zm-1.4-8.1a3.7,3.7,0,0,0-2.5-.9,2.2,2.2,0,0,0-2.2,1.1,5.2,5.2,0,0,0-.7,2.9,5.1,5.1,0,0,0,.7,2.8,2.4,2.4,0,0,0,2.1,1.1,2.8,2.8,0,0,0,1.3-.3l1.3-.9Z"/><path d="M228.6,86.2a2.4,2.4,0,0,0-2.1,1.2,6.4,6.4,0,0,0,0,5.8,2.1,2.1,0,0,0,2,1.1,2.5,2.5,0,0,0,2.1-1.1,5.9,5.9,0,0,0,.7-2.9,6.5,6.5,0,0,0-.7-2.9A2.3,2.3,0,0,0,228.6,86.2Zm.1-1a4.1,4.1,0,0,1,2.6.9,3.1,3.1,0,0,1,1,1.5,6.1,6.1,0,0,1,.4,2.4,5.5,5.5,0,0,1-1.1,3.9,4,4,0,0,1-3.2,1.4,3.8,3.8,0,0,1-3-1.2,6.2,6.2,0,0,1-1.1-3.6,5.6,5.6,0,0,1,1.2-3.8,3.8,3.8,0,0,1,3.2-1.5Z"/><path d="M242.7,86.8a5.3,5.3,0,0,1,1.4-1.1,3.9,3.9,0,0,1,1.4-.5,1.7,1.7,0,0,1,1,.3c.2.1.3.4.3.8a2.4,2.4,0,0,1-.3,1.4l-.8.2c0-1-.3-1.4-.8-1.4a3.5,3.5,0,0,0-2.2,1.3v6.3h1.7c0,.6-.2.8-.6.8h-3.9a.6.6,0,0,1,.3-.6h1.1V86.5h-1c-.3,0-.5-.3-.5-.8l2.7-.3v1.5Z"/><path d="M261.8,94.4c0,.6-.4,1-1.2,1a1.3,1.3,0,0,1-1.4-1.3,4.1,4.1,0,0,1-3,1.2,2.8,2.8,0,0,1-2.1-.7,2.1,2.1,0,0,1-.8-1.8,2.9,2.9,0,0,1,.9-2.1,4.2,4.2,0,0,1,2.9-.8,6.6,6.6,0,0,1,2.1.3V88.7a2.4,2.4,0,0,0-.6-1.8,1.9,1.9,0,0,0-1.6-.7,2.1,2.1,0,0,0-1.6.6,2.9,2.9,0,0,0-.5,1.3.8.8,0,0,1-.7-.2.7.7,0,0,1-.4-.7,1.5,1.5,0,0,1,.9-1.4,3.8,3.8,0,0,1,2.2-.6,4.6,4.6,0,0,1,2.3.6,2.4,2.4,0,0,1,1,1,4.8,4.8,0,0,1,.3,1.8v5.7Zm-2.6-3a3.6,3.6,0,0,0-2.1-.5,3,3,0,0,0-1.8.4,1.7,1.7,0,0,0-.5,1.3,1.3,1.3,0,0,0,.5,1.2,1.7,1.7,0,0,0,1.3.5,4,4,0,0,0,2.6-1.1Z"/><path d="M274.3,81.8h4.1a5.3,5.3,0,0,1,3.6,1,3.4,3.4,0,0,1,1.2,2.7,3.7,3.7,0,0,1-1.4,3.2,6.7,6.7,0,0,1-3.9,1h-1.3v4.4h1.5c0,.6-.1.8-.6.8h-3.8c0-.4.1-.6.3-.7h1.2V82.8h-1.4c-.1-.6.1-.9.5-.9Zm3.4,7c2.7,0,4-1,4-3.1s-1.3-3.2-4-3h-1.1v6.1Z"/><path d="M292.8,86.8a5.8,5.8,0,0,1,1.5-1.1,3,3,0,0,1,1.4-.5,1.2,1.2,0,0,1,.9.3c.2.1.3.4.3.8a2.4,2.4,0,0,1-.3,1.4l-.8.2c0-1-.2-1.4-.7-1.4a3.6,3.6,0,0,0-2.3,1.3v6.3h1.7c0,.6-.1.8-.6.8H290a.6.6,0,0,1,.3-.6h1.2V86.5h-1.1c-.3,0-.4-.3-.4-.8l2.6-.3.2,1.5Z"/><path d="M307.5,86.2a2.4,2.4,0,0,0-2.1,1.2,6.4,6.4,0,0,0,0,5.8,2.3,2.3,0,0,0,2.1,1.1,2.4,2.4,0,0,0,2-1.1,5,5,0,0,0,.7-2.9,5.4,5.4,0,0,0-.7-2.9A2.1,2.1,0,0,0,307.5,86.2Zm.1-1a4.4,4.4,0,0,1,2.7.9,5.6,5.6,0,0,1,1,1.5,8.6,8.6,0,0,1,.4,2.4,6.1,6.1,0,0,1-1.2,3.9,3.8,3.8,0,0,1-3.1,1.4,3.5,3.5,0,0,1-3-1.2,6.8,6.8,0,0,1,0-7.4,3.9,3.9,0,0,1,3.2-1.5Z"/><path d="M318.8,86.4v-.7h1.3v-.7a4.1,4.1,0,0,1,.8-2.7,2.4,2.4,0,0,1,2.1-1,2,2,0,0,1,1.1.3c.3.2.5.4.5.7a.8.8,0,0,1-.3.7.6.6,0,0,1-.6.3,1,1,0,0,0-.3-.8,1.1,1.1,0,0,0-.8-.3c-.8,0-1.1.8-1.1,2.3v1.2H324q0,.9-.6.9h-1.8v7.7h1.9v.4c0,.1-.1.2-.1.3h-4.6a.6.6,0,0,1,.3-.6h1.1V86.4Z"/><path d="M338,89.9h-6.1v.6a4.5,4.5,0,0,0,.7,2.7,2.5,2.5,0,0,0,2.2,1,4.4,4.4,0,0,0,2.8-1c.2.1.2.3.2.5s-.3.7-1,1.1a6,6,0,0,1-2.4.5,3.7,3.7,0,0,1-2.9-1.2,5.3,5.3,0,0,1-1.1-3.6,5.2,5.2,0,0,1,1.3-3.8,4,4,0,0,1,3-1.5,3,3,0,0,1,2.6,1.1A4.7,4.7,0,0,1,338,89Zm-1.4-.9a3.9,3.9,0,0,0-.5-2,1.5,1.5,0,0,0-1.5-.8,2,2,0,0,0-1.6.7,4.6,4.6,0,0,0-1,2.1Z"/><path d="M344.9,87.9a2.4,2.4,0,0,1,1.1-2,3.4,3.4,0,0,1,2.2-.7,5.9,5.9,0,0,1,2,.4,1.3,1.3,0,0,1,.7,1.2.8.8,0,0,1-.4.8l-.7.2a1.6,1.6,0,0,0-.4-1.1,1.9,1.9,0,0,0-1.3-.5,2.1,2.1,0,0,0-1.4.4,1.2,1.2,0,0,0-.6,1,1.1,1.1,0,0,0,.6,1,5.9,5.9,0,0,0,1.6.8l1.4.6.9.5a2.2,2.2,0,0,1,.8,1.8,3.1,3.1,0,0,1-1.1,2.1,4,4,0,0,1-2.7.9,4.6,4.6,0,0,1-2.1-.5,1.4,1.4,0,0,1-.9-1.3,1,1,0,0,1,1-1,1.9,1.9,0,0,0,.7,1.3,2.4,2.4,0,0,0,1.6.5,2.5,2.5,0,0,0,1.6-.4,1.4,1.4,0,0,0,.6-1.2,1.5,1.5,0,0,0-.4-1.1l-1.3-.6-1.2-.5-.9-.4a2.2,2.2,0,0,1-.7-.6A2,2,0,0,1,344.9,87.9Z"/><path d="M361.9,95h-3.7a.6.6,0,0,1,.3-.6h1.2V86.4h-1c-.4-.1-.5-.4-.5-.9l2.8-.3v8.9h1.5C362.5,94.8,362.4,95,361.9,95Zm-1-11.6a1,1,0,0,1-1.4,0,.8.8,0,0,1-.3-.7.9.9,0,0,1,.3-.7.9.9,0,0,1,1.6.7C361.1,83,361.1,83.3,360.9,83.4Z"/><path d="M373.4,86.2a2.3,2.3,0,0,0-2,1.2,6.4,6.4,0,0,0,0,5.8,2,2,0,0,0,2,1.1,2.5,2.5,0,0,0,2.1-1.1,5.9,5.9,0,0,0,.7-2.9,6.5,6.5,0,0,0-.7-2.9A2.4,2.4,0,0,0,373.4,86.2Zm.2-1a4.3,4.3,0,0,1,2.6.9,4,4,0,0,1,1,1.5,7.4,7.4,0,0,1-.7,6.3,4,4,0,0,1-3.2,1.4,3.8,3.8,0,0,1-3-1.2,6.2,6.2,0,0,1-1.1-3.6,5.6,5.6,0,0,1,1.2-3.8,3.8,3.8,0,0,1,3.2-1.5Z"/><path d="M394.8,95h-3.6a.8.8,0,0,1,.2-.6h1.2V89.1q0-2.7-2.1-2.7a3.7,3.7,0,0,0-1.5.3,5.3,5.3,0,0,0-1.4,1v6.4H389c0,.6-.2.8-.6.8h-3.6c0-.4.2-.7.6-.7h.8V86.5h-1c-.3-.1-.5-.3-.5-.8l2.6-.4.2,1.5h.1a4.5,4.5,0,0,1,3.2-1.5,2.9,2.9,0,0,1,2.2.9,3.7,3.7,0,0,1,1,2.9v5.1h1.3C395.4,94.8,395.2,95,394.8,95Z"/><path d="M410.8,94.4c0,.6-.5,1-1.3,1s-1.2-.5-1.4-1.3a4.1,4.1,0,0,1-3,1.2,2.8,2.8,0,0,1-2.1-.7,2.3,2.3,0,0,1-.8-1.8,2.9,2.9,0,0,1,.9-2.1,4.4,4.4,0,0,1,2.9-.8,6.6,6.6,0,0,1,2.1.3V88.7a2.4,2.4,0,0,0-.6-1.8,2.2,2.2,0,0,0-3.1-.1,2.1,2.1,0,0,0-.5,1.3,1.1,1.1,0,0,1-.8-.2.8.8,0,0,1-.3-.7,1.6,1.6,0,0,1,.8-1.4,3.9,3.9,0,0,1,2.3-.6,4.6,4.6,0,0,1,2.2.6,2.4,2.4,0,0,1,1,1,4.8,4.8,0,0,1,.4,1.8v5.7Zm-2.7-3a3.6,3.6,0,0,0-2.1-.5,2.5,2.5,0,0,0-1.7.4,1.5,1.5,0,0,0-.6,1.3,1.7,1.7,0,0,0,.5,1.2,1.9,1.9,0,0,0,1.3.5,3.8,3.8,0,0,0,2.6-1.1Z"/><path d="M421.2,95h-3.7c0-.4.2-.7.6-.7h.8V82.7h-1c-.3,0-.4-.3-.4-.8l2.8-.4V94.1h1.4C421.7,94.8,421.6,95,421.2,95Z"/></g></svg>