<?xml version="1.0" encoding="UTF-8"?>
<svg width="752pt" height="752pt" version="1.1" viewBox="0 0 752 752" xmlns="http://www.w3.org/2000/svg">
 <path d="m193.29 324.1c24.152-18.941 54.461-17.523 83.043-11.84 19.395 3.8594 39.566 10.324 59.531 9.2812 10.441-0.56641 20.48-4.7344 25.004-14.633 3.6211-7.8867 3.3633-18.777-3.0312-25.102-2.3672-2.25 0.14062-5.7539 2.9141-5.7773 27.871-0.1875 55.812 2.3672 75.277 24.723 13.117 14.965 24.27 29.008 46.457 24.105 18.281-4.0273 32.676-19.062 45.582-31.637h-0.003906c0.64453-0.75 1.5703-1.1953 2.5547-1.2305 0.98438-0.035156 1.9414 0.33984 2.6328 1.043 0.69531 0.69922 1.0664 1.6602 1.0195 2.6445-0.046876 0.98438-0.5 1.9062-1.2578 2.5391-20.176 19.629-50.152 46.625-80.199 29.906-16.242-9.0469-23.156-28.035-40.043-36.797-13.969-7.2461-29.906-8.4062-45.441-8.5469h0.003907c4.1523 9.2461 3.5977 19.93-1.4922 28.699-7.1055 12.715-21.691 16.434-35.352 15.914-45.914-1.7773-93.676-35.047-135.99-1.9883-0.83203 0.63672-2.1562-0.54688-1.2109-1.3047zm-2.7227 63.461c19.68-7.1523 38.621-4.4531 58.914-2.0859 18.031 2.2383 36.328 0.91016 53.848-3.9062 36.488-10.062 73.238-31.469 111.53-21.949-3.1484 4.4258-4.1562 10.027-2.7461 15.27 3.3867 13.379 17.902 21.547 30.617 23.441 35.328 5.2344 72.457-31.941 105.21-8.3828 3.9531 2.8398 8.832-3.7891 4.5469-6.7734-18.941-13.117-40.68-8.6914-61.094-1.5859-11.461 3.9766-22.992 8.6211-35.211 9.7305v0.003906c-7.2773 0.89844-14.664-0.11328-21.43-2.9336-2.9961-1.3398-5.7812-3.1094-8.2656-5.2578-1.6094-1.4688-17.711-22.828-3.1719-20.934 4.3555 0.56641 7.1055-5.1602 2.3672-6.9141-40.445-14.797-79.395 6.0625-117.61 17.973-20.773 6.3555-42.637 8.3477-64.219 5.8477-18.613-1.7773-37.223-3.125-53.941 6.6523-0.96875 0.54688-0.51953 2.2305 0.66406 1.8047zm379.15 55.008c-22.094-9.7305-44.281-4.7344-65.875 4-26.969 10.941-58.512 31.562-88.18 17.617-30.168-14.207-66.301-74.52-104.05-40.066-1.3633 1.1758-1.75 3.125-0.94531 4.7344 11.32 19.25-10.941 34.547-27.848 36.109-13.875 1.2773-27.656-2.8398-41.082-5.707-20.695-4.4062-41.203-5.5156-57.754 9.4727v0.003907c-0.37891 0.27734-0.46094 0.81641-0.17969 1.1953 0.28125 0.37891 0.82031 0.45703 1.1992 0.17578 31.516-20.555 65.688 5.5898 99.121 2.1094 21.168-2.1797 45.891-21.715 35.234-44.492 20.199-15.297 44.113 4.3789 59.387 18.375 14.207 12.977 28.414 26.828 48.281 29.93 48.234 7.5312 90.477-47.359 138.07-26.449 4.4961 1.9141 9.4688-4.9023 4.6133-7.0117z"/>
</svg>
